# xmcd
#
# Track frame offsets:
#	150
#	18414
#	57266
#	80942
#	109989
#	134042
#	160225
#
# Disc length: 2705 seconds
#
# Revision: 0
# Processed by: cddbd v1.5.2PL0 Copyright (c) Steve Scherf et al.
# Submitted via: EZCDAudioConverter 1.3.4.1
#
DISCID=620a8f07
DTITLE=Metal Grave - The Eternal Flame Of Deception
DYEAR=2013
DGENRE=Heavy Metal
TTITLE0=Face The Gates
TTITLE1=Journey Into The Unknown
TTITLE2=The Court Of King Minos
TTITLE3=Memories Of A Past Life
TTITLE4=Envenom
TTITLE5=The Judgement
TTITLE6=The Seventh Circle
EXTD=
EXTT0=
EXTT1=
EXTT2=
EXTT3=
EXTT4=
EXTT5=
EXTT6=
PLAYORDER=
